<?xml version="1.0" encoding="UTF-8"?>
<svg xmlns="http://www.w3.org/2000/svg" xmlns:xlink="http://www.w3.org/1999/xlink" width="270px" height="304px" viewBox="0 0 270 303" version="1.1">
<defs>
<clipPath id="clip1">
  <path d="M 87.390625 75.75 L 182.605469 75.75 L 182.605469 227.25 L 87.390625 227.25 Z M 87.390625 75.75 "/>
</clipPath>
</defs>
<g id="surface1">
<path style=" stroke:none;fill-rule:nonzero;fill:rgb(79.215686%,20.392157%,20%);fill-opacity:1;" d="M 259.8125 151.5 L 265.359375 141.914062 C 274.914062 125.414062 269.246094 104.308594 252.699219 94.78125 L 243.09375 89.246094 L 243.09375 78.179688 C 243.09375 59.125 227.605469 43.675781 208.503906 43.675781 L 197.410156 43.675781 L 191.859375 34.089844 C 182.308594 17.589844 161.152344 11.933594 144.609375 21.464844 L 135 26.996094 L 125.390625 21.460938 C 108.847656 11.933594 87.695312 17.589844 78.140625 34.089844 L 72.59375 43.675781 L 61.496094 43.675781 C 42.394531 43.675781 26.910156 59.121094 26.910156 78.179688 L 26.910156 89.246094 L 17.300781 94.78125 C 0.757812 104.308594 -4.910156 125.410156 4.640625 141.914062 L 10.1875 151.5 L 4.636719 161.082031 C -4.910156 177.585938 0.757812 198.6875 17.300781 208.214844 L 26.910156 213.75 L 26.910156 224.820312 C 26.910156 243.875 42.394531 259.324219 61.496094 259.324219 L 72.59375 259.324219 L 78.140625 268.90625 C 87.695312 285.410156 108.847656 291.0625 125.390625 281.535156 L 135 276.003906 L 144.605469 281.539062 C 161.152344 291.066406 182.304688 285.414062 191.855469 268.910156 L 197.40625 259.324219 L 208.5 259.324219 C 227.601562 259.324219 243.089844 243.878906 243.089844 224.824219 L 243.089844 213.753906 L 252.699219 208.21875 C 269.242188 198.691406 274.910156 177.589844 265.355469 161.085938 Z M 251.1875 97.394531 C 258.488281 101.597656 263.710938 108.386719 265.890625 116.511719 C 268.074219 124.632812 266.957031 133.121094 262.738281 140.402344 L 258.066406 148.476562 L 243.09375 122.605469 L 243.09375 92.730469 Z M 211.914062 228.222656 L 163.152344 256.304688 L 106.847656 256.304688 L 58.085938 228.222656 L 29.933594 179.582031 L 29.933594 123.417969 L 58.085938 74.773438 L 106.847656 46.691406 L 163.152344 46.691406 L 211.914062 74.773438 L 240.0625 123.417969 L 240.0625 179.582031 Z M 240.0625 185.621094 L 240.0625 212.007812 L 217.152344 225.203125 Z M 208.882812 233.449219 L 195.65625 256.300781 L 169.207031 256.300781 Z M 157.90625 259.324219 L 135 272.515625 L 112.089844 259.324219 Z M 100.792969 256.300781 L 74.339844 256.300781 L 61.113281 233.449219 Z M 52.847656 225.203125 L 29.9375 212.007812 L 29.9375 185.621094 Z M 26.910156 174.351562 L 13.683594 151.5 L 26.910156 128.648438 Z M 29.9375 117.378906 L 29.9375 90.988281 L 52.847656 77.796875 Z M 61.113281 69.546875 L 74.339844 46.695312 L 100.792969 46.695312 Z M 112.089844 43.675781 L 135 30.480469 L 157.90625 43.675781 Z M 169.207031 46.695312 L 195.65625 46.695312 L 208.882812 69.546875 Z M 217.152344 77.796875 L 240.0625 90.988281 L 240.0625 117.378906 Z M 243.089844 128.648438 L 256.316406 151.5 L 243.089844 174.351562 Z M 208.5 46.695312 C 216.933594 46.695312 224.855469 49.96875 230.820312 55.917969 C 236.78125 61.863281 240.0625 69.773438 240.066406 78.179688 L 240.066406 87.507812 L 214.128906 72.570312 L 199.152344 46.695312 Z M 146.121094 24.078125 C 153.421875 19.871094 161.929688 18.753906 170.070312 20.933594 C 178.214844 23.109375 185.019531 28.320312 189.234375 35.601562 L 193.90625 43.679688 L 163.957031 43.679688 L 138.019531 28.742188 Z M 80.761719 35.597656 C 84.976562 28.3125 91.78125 23.105469 99.925781 20.929688 C 108.066406 18.753906 116.574219 19.867188 123.875 24.074219 L 131.96875 28.734375 L 106.035156 43.671875 L 76.085938 43.671875 Z M 29.9375 78.179688 C 29.9375 69.769531 33.21875 61.863281 39.179688 55.914062 C 45.140625 49.96875 53.070312 46.691406 61.5 46.691406 L 70.847656 46.691406 L 55.875 72.566406 L 29.9375 87.503906 Z M 7.261719 140.40625 C 3.046875 133.121094 1.925781 124.636719 4.109375 116.511719 C 6.292969 108.390625 11.515625 101.601562 18.816406 97.398438 L 26.910156 92.738281 L 26.910156 122.613281 L 11.9375 148.484375 Z M 18.8125 205.601562 C 11.507812 201.398438 6.289062 194.609375 4.105469 186.488281 C 1.925781 178.363281 3.042969 169.878906 7.257812 162.597656 L 11.929688 154.519531 L 26.90625 180.394531 L 26.90625 210.269531 Z M 61.496094 256.300781 C 53.066406 256.300781 45.140625 253.027344 39.179688 247.078125 C 33.21875 241.136719 29.933594 233.226562 29.933594 224.816406 L 29.933594 215.492188 L 55.871094 230.429688 L 70.84375 256.300781 Z M 123.878906 278.921875 C 116.574219 283.125 108.070312 284.242188 99.925781 282.0625 C 91.785156 279.886719 84.980469 274.675781 80.765625 267.394531 L 76.089844 259.320312 L 106.039062 259.320312 L 131.976562 274.257812 Z M 189.238281 267.398438 C 185.023438 274.683594 178.214844 279.890625 170.074219 282.066406 C 161.933594 284.246094 153.421875 283.128906 146.125 278.925781 L 138.027344 274.261719 L 163.964844 259.324219 L 193.914062 259.324219 Z M 240.0625 224.820312 C 240.0625 233.230469 236.78125 241.132812 230.816406 247.082031 C 224.855469 253.027344 216.929688 256.304688 208.5 256.304688 L 199.148438 256.304688 L 214.125 230.429688 L 240.0625 215.496094 Z M 265.890625 186.484375 C 263.710938 194.605469 258.484375 201.394531 251.1875 205.601562 L 243.089844 210.261719 L 243.089844 180.386719 L 258.0625 154.511719 L 262.738281 162.589844 C 266.953125 169.875 268.074219 178.363281 265.890625 186.484375 Z M 265.890625 186.484375 "/>
<g clip-path="url(#clip1)" clip-rule="nonzero">
<path style=" stroke:none;fill-rule:nonzero;fill:rgb(100%,100%,100%);fill-opacity:1;" d="M 150.632812 147.980469 C 171.949219 152.203125 182.609375 164.320312 182.609375 184.332031 C 182.609375 198.558594 177.4375 209.269531 167.089844 216.460938 C 156.746094 223.652344 141.308594 227.25 120.777344 227.25 C 106.984375 227.25 95.933594 226.9375 87.628906 226.3125 L 87.390625 226.3125 L 88.566406 181.050781 L 87.390625 75.984375 L 129.242188 75.75 C 143.347656 75.75 154.207031 78.875 161.824219 85.128906 C 169.410156 91.382812 173.203125 100.453125 173.203125 112.335938 C 173.203125 120.777344 171.246094 128.046875 167.328125 134.144531 C 163.410156 140.242188 157.84375 144.855469 150.632812 147.980469 Z M 153.925781 114.445312 C 153.925781 106.316406 151.699219 100.40625 147.25 96.714844 C 142.765625 93.058594 135.511719 91.226562 125.480469 91.226562 L 106.4375 91.226562 L 105.964844 141.648438 L 131.828125 142.355469 C 146.558594 138.914062 153.925781 129.613281 153.925781 114.445312 Z M 123.597656 211.539062 C 136.449219 211.539062 146.324219 209.113281 153.21875 204.265625 C 160.117188 199.421875 163.566406 192.460938 163.566406 183.394531 C 163.566406 168.074219 153.925781 159.316406 134.648438 157.128906 L 105.730469 157.363281 L 105.496094 179.40625 L 106.199219 210.832031 C 112.3125 211.300781 118.113281 211.539062 123.597656 211.539062 Z M 123.597656 211.539062 "/>
</g>
</g>
</svg>
