<?xml version="1.0" encoding="UTF-8"?>
<svg xmlns="http://www.w3.org/2000/svg" xmlns:xlink="http://www.w3.org/1999/xlink" width="270px" height="304px" viewBox="0 0 270 304" version="1.1">
<defs>
<clipPath id="clip1">
  <path d="M 87.523438 83.601562 L 135.132812 83.601562 L 135.132812 220.402344 L 87.523438 220.402344 Z M 87.523438 83.601562 "/>
</clipPath>
<clipPath id="clip2">
  <path d="M 153.054688 125.496094 L 162 125.496094 L 162 178.496094 L 153.054688 178.496094 Z M 153.054688 125.496094 "/>
</clipPath>
<clipPath id="clip3">
  <path d="M 162 125.496094 L 171 125.496094 L 171 178.496094 L 162 178.496094 Z M 162 125.496094 "/>
</clipPath>
<clipPath id="clip4">
  <path d="M 162 125.496094 L 172 125.496094 L 172 178.496094 L 162 178.496094 Z M 162 125.496094 "/>
</clipPath>
<clipPath id="clip5">
  <path d="M 172 125.496094 L 181 125.496094 L 181 178.496094 L 172 178.496094 Z M 172 125.496094 "/>
</clipPath>
</defs>
<g id="surface1">
<path style=" stroke:none;fill-rule:nonzero;fill:rgb(3.529412%,41.568627%,18.039216%);fill-opacity:1;" d="M 61.929688 76 L 135 0 L 208.070312 76 L 208.070312 228 L 135 304 L 61.929688 228 Z M 61.929688 76 "/>
<g clip-path="url(#clip1)" clip-rule="nonzero">
<path style=" stroke:none;fill-rule:nonzero;fill:rgb(100%,100%,100%);fill-opacity:1;" d="M 119.144531 148.824219 C 129.800781 152.632812 135.128906 163.578125 135.128906 181.644531 C 135.128906 194.496094 132.542969 204.164062 127.371094 210.660156 C 122.199219 217.152344 114.480469 220.398438 104.214844 220.398438 C 97.316406 220.398438 91.792969 220.117188 87.640625 219.554688 L 87.523438 219.554688 L 88.109375 178.679688 L 87.523438 83.8125 L 108.445312 83.601562 C 115.5 83.601562 120.929688 86.421875 124.738281 92.070312 C 128.53125 97.71875 130.425781 105.90625 130.425781 116.636719 C 130.425781 124.257812 129.449219 130.820312 127.488281 136.332031 C 125.53125 141.832031 122.746094 146 119.144531 148.824219 Z M 120.789062 118.539062 C 120.789062 111.203125 119.675781 105.863281 117.449219 102.53125 C 115.207031 99.230469 111.582031 97.578125 106.566406 97.578125 L 97.042969 97.578125 L 96.808594 143.105469 L 109.738281 143.742188 C 117.105469 140.636719 120.789062 132.234375 120.789062 118.539062 Z M 105.625 206.210938 C 112.050781 206.210938 116.988281 204.023438 120.4375 199.648438 C 123.882812 195.269531 125.609375 188.988281 125.609375 180.800781 C 125.609375 166.964844 120.789062 159.0625 111.148438 157.082031 L 96.691406 157.292969 L 96.574219 177.199219 L 96.925781 205.578125 C 99.980469 206 102.882812 206.210938 105.625 206.210938 Z M 105.625 206.210938 "/>
</g>
<g clip-path="url(#clip2)" clip-rule="nonzero">
<path style="fill-rule:nonzero;fill:rgb(100%,100%,100%);fill-opacity:1;stroke-width:1;stroke-linecap:butt;stroke-linejoin:miter;stroke:rgb(100%,100%,100%);stroke-opacity:1;stroke-miterlimit:4;" d="M -0.004112 -0.003094 L 17.154221 -0.003094 L 17.154221 62.769375 L -0.004112 62.769375 Z M -0.004112 -0.003094 " transform="matrix(0.46875,0,0,0.844444,153.056615,125.498706)"/>
</g>
<g clip-path="url(#clip3)" clip-rule="nonzero">
<path style=" stroke:none;fill-rule:nonzero;fill:rgb(100%,100%,100%);fill-opacity:0.74902;" d="M 162.863281 125.496094 L 170.90625 125.496094 L 170.90625 178.503906 L 162.863281 178.503906 Z M 162.863281 125.496094 "/>
</g>
<g clip-path="url(#clip4)" clip-rule="nonzero">
<path style="fill:none;stroke-width:1;stroke-linecap:butt;stroke-linejoin:miter;stroke:rgb(100%,100%,100%);stroke-opacity:1;stroke-miterlimit:4;" d="M 20.920888 -0.003094 L 38.079221 -0.003094 L 38.079221 62.769375 L 20.920888 62.769375 Z M 20.920888 -0.003094 " transform="matrix(0.46875,0,0,0.844444,153.056615,125.498706)"/>
</g>
<g clip-path="url(#clip5)" clip-rule="nonzero">
<path style="fill-rule:nonzero;fill:rgb(100%,100%,100%);fill-opacity:0.501961;stroke-width:1;stroke-linecap:butt;stroke-linejoin:miter;stroke:rgb(100%,100%,100%);stroke-opacity:1;stroke-miterlimit:4;" d="M 41.845888 -0.003094 L 59.004221 -0.003094 L 59.004221 62.769375 L 41.845888 62.769375 Z M 41.845888 -0.003094 " transform="matrix(0.46875,0,0,0.844444,153.056615,125.498706)"/>
</g>
</g>
</svg>
