<?xml version="1.0" encoding="UTF-8"?>
<svg xmlns="http://www.w3.org/2000/svg" xmlns:xlink="http://www.w3.org/1999/xlink" width="269px" height="304px" viewBox="0 0 269 304" version="1.1">
<defs>
<clipPath id="clip1">
  <path d="M 87.074219 77.265625 L 181.945312 77.265625 L 181.945312 226.734375 L 87.074219 226.734375 Z M 87.074219 77.265625 "/>
</clipPath>
</defs>
<g id="surface1">
<path style=" stroke:none;fill-rule:nonzero;fill:rgb(79.215686%,20.392157%,20%);fill-opacity:1;" d="M 258.847656 152 L 264.378906 142.539062 C 273.898438 126.269531 268.246094 105.449219 251.769531 96.050781 L 242.195312 90.585938 L 242.195312 79.660156 C 242.195312 60.859375 226.769531 45.621094 207.738281 45.621094 L 196.675781 45.621094 L 191.144531 36.160156 C 181.625 19.890625 160.550781 14.308594 144.074219 23.710938 L 134.5 29.171875 L 124.925781 23.710938 C 108.449219 14.308594 87.375 19.890625 77.855469 36.160156 L 72.324219 45.621094 L 61.261719 45.621094 C 42.230469 45.621094 26.804688 60.859375 26.804688 79.660156 L 26.804688 90.585938 L 17.230469 96.050781 C 0.753906 105.449219 -4.898438 126.269531 4.621094 142.539062 L 10.152344 152 L 4.621094 161.460938 C -4.898438 177.730469 0.753906 198.550781 17.230469 207.949219 L 26.804688 213.414062 L 26.804688 224.339844 C 26.804688 243.140625 42.230469 258.378906 61.261719 258.378906 L 72.324219 258.378906 L 77.855469 267.839844 C 87.375 284.109375 108.449219 289.691406 124.925781 280.289062 L 134.5 274.828125 L 144.074219 280.289062 C 160.550781 289.691406 181.625 284.109375 191.144531 267.839844 L 196.675781 258.378906 L 207.738281 258.378906 C 226.75 258.378906 242.195312 243.140625 242.195312 224.339844 L 242.195312 213.414062 L 251.769531 207.949219 C 268.246094 198.550781 273.898438 177.730469 264.378906 161.460938 Z M 250.265625 98.621094 C 257.539062 102.777344 262.734375 109.46875 264.914062 117.484375 C 267.078125 125.5 265.964844 133.871094 261.761719 141.054688 L 257.105469 149.011719 L 242.195312 123.5 L 242.195312 94.011719 Z M 211.128906 227.683594 L 162.554688 255.390625 L 106.445312 255.390625 L 57.871094 227.683594 L 29.820312 179.707031 L 29.820312 124.292969 L 57.871094 76.296875 L 106.445312 48.609375 L 162.554688 48.609375 L 211.128906 76.296875 L 239.179688 124.292969 L 239.179688 179.707031 Z M 239.179688 185.664062 L 239.179688 211.691406 L 216.34375 224.714844 Z M 208.113281 232.847656 L 194.929688 255.390625 L 168.582031 255.390625 Z M 157.320312 258.378906 L 134.5 271.382812 L 111.679688 258.378906 Z M 100.417969 255.390625 L 74.070312 255.390625 L 60.886719 232.847656 Z M 52.65625 224.714844 L 29.820312 211.691406 L 29.820312 185.664062 Z M 26.804688 174.542969 L 13.640625 152 L 26.804688 129.457031 Z M 29.820312 118.335938 L 29.820312 92.308594 L 52.65625 79.285156 Z M 60.886719 71.152344 L 74.070312 48.609375 L 100.417969 48.609375 Z M 111.679688 45.621094 L 134.5 32.597656 L 157.320312 45.621094 Z M 168.582031 48.609375 L 194.929688 48.609375 L 208.113281 71.152344 Z M 216.34375 79.285156 L 239.179688 92.308594 L 239.179688 118.335938 Z M 242.195312 129.457031 L 255.359375 152 L 242.195312 174.542969 Z M 207.738281 48.609375 C 216.125 48.609375 224.015625 51.835938 229.960938 57.691406 C 235.910156 63.570312 239.179688 71.367188 239.179688 79.660156 L 239.179688 88.863281 L 213.328125 74.121094 L 198.417969 48.609375 Z M 145.582031 26.285156 C 152.859375 22.148438 161.324219 21.039062 169.433594 23.175781 C 177.5625 25.332031 184.34375 30.480469 188.527344 37.664062 L 193.183594 45.621094 L 163.347656 45.621094 L 137.511719 30.894531 Z M 80.453125 37.664062 C 84.65625 30.460938 91.4375 25.332031 99.546875 23.175781 C 107.675781 21.039062 116.140625 22.128906 123.417969 26.285156 L 131.488281 30.875 L 105.632812 45.621094 L 75.796875 45.621094 Z M 29.820312 79.660156 C 29.820312 71.367188 33.089844 63.570312 39.039062 57.691406 C 44.964844 51.835938 52.875 48.609375 61.28125 48.609375 L 70.582031 48.609375 L 55.671875 74.121094 L 29.820312 88.863281 Z M 7.238281 141.054688 C 3.035156 133.871094 1.921875 125.5 4.105469 117.484375 C 6.265625 109.46875 11.480469 102.777344 18.734375 98.621094 L 26.804688 94.03125 L 26.804688 123.5 L 11.894531 149.03125 Z M 18.734375 205.378906 C 11.460938 201.222656 6.265625 194.53125 4.085938 186.515625 C 1.921875 178.5 3.035156 170.128906 7.238281 162.945312 L 11.894531 154.988281 L 26.804688 180.5 L 26.804688 209.96875 Z M 61.261719 255.390625 C 52.875 255.390625 44.964844 252.164062 39.039062 246.289062 C 33.089844 240.429688 29.820312 232.632812 29.820312 224.339844 L 29.820312 215.136719 L 55.671875 229.859375 L 70.582031 255.390625 Z M 123.417969 277.714844 C 116.140625 281.851562 107.675781 282.960938 99.566406 280.804688 C 91.4375 278.667969 84.65625 273.519531 80.472656 266.335938 L 75.816406 258.378906 L 105.652344 258.378906 L 131.488281 273.105469 Z M 188.546875 266.335938 C 184.34375 273.519531 177.5625 278.667969 169.453125 280.824219 C 161.324219 282.960938 152.859375 281.851562 145.582031 277.714844 L 137.511719 273.125 L 163.367188 258.378906 L 193.203125 258.378906 Z M 239.179688 224.339844 C 239.179688 232.632812 235.910156 240.429688 229.960938 246.308594 C 224.015625 252.164062 216.125 255.390625 207.71875 255.390625 L 198.417969 255.390625 L 213.328125 229.878906 L 239.179688 215.136719 Z M 264.914062 186.515625 C 262.734375 194.53125 257.519531 201.222656 250.265625 205.378906 L 242.195312 209.96875 L 242.195312 180.5 L 257.105469 154.96875 L 261.761719 162.945312 C 265.964844 170.128906 267.078125 178.5 264.914062 186.515625 Z M 264.914062 186.515625 "/>
<g clip-path="url(#clip1)" clip-rule="nonzero">
<path style=" stroke:none;fill-rule:nonzero;fill:rgb(79.215686%,20.392157%,20%);fill-opacity:1;" d="M 150.082031 148.535156 C 171.316406 152.691406 181.925781 164.648438 181.925781 184.398438 C 181.925781 198.429688 176.769531 209 166.480469 216.085938 C 156.167969 223.191406 140.785156 226.734375 120.324219 226.734375 C 106.585938 226.734375 95.582031 226.417969 87.292969 225.804688 L 87.074219 225.804688 L 88.246094 181.152344 L 87.074219 77.503906 L 128.769531 77.265625 C 142.808594 77.265625 153.632812 80.355469 161.226562 86.527344 C 168.777344 92.683594 172.566406 101.628906 172.566406 113.367188 C 172.566406 121.699219 170.601562 128.863281 166.699219 134.878906 C 162.8125 140.898438 157.261719 145.449219 150.082031 148.535156 Z M 153.355469 115.445312 C 153.355469 107.429688 151.132812 101.589844 146.710938 97.949219 C 142.230469 94.347656 135.015625 92.546875 125.023438 92.546875 L 106.050781 92.546875 L 105.574219 142.28125 L 131.347656 142.976562 C 146.019531 139.589844 153.355469 130.40625 153.355469 115.445312 Z M 123.140625 211.238281 C 135.949219 211.238281 145.78125 208.839844 152.660156 204.050781 C 159.519531 199.28125 162.949219 192.414062 162.949219 183.46875 C 162.949219 168.347656 153.355469 159.71875 134.144531 157.5625 L 105.335938 157.777344 L 105.097656 179.53125 L 105.8125 210.542969 C 111.898438 211 117.667969 211.238281 123.140625 211.238281 Z M 123.140625 211.238281 "/>
</g>
</g>
</svg>
